<svg width="520" height="160" viewBox="0 0 520 160" fill="none" xmlns="http://www.w3.org/2000/svg">
<path d="M124 24H68C52.536 24 40 36.536 40 52V108C40 123.464 52.536 136 68 136H124C139.464 136 152 123.464 152 108V52C152 36.536 139.464 24 124 24Z" fill="#6C4CF1"/>
<path d="M88 52V120M132 52L88 86L132 120" stroke="#F9F8FF" stroke-width="14" stroke-linecap="round" stroke-linejoin="round"/>
<path d="M189.636 92.9545L189.659 81.3409H191.068L202.25 68.0909H213.364L198.341 85.6364H196.045L189.636 92.9545ZM180.864 103V56.4545H190.545V103H180.864ZM202.682 103L192.409 87.7955L198.864 80.9545L214.023 103H202.682ZM228.068 103.659C225.841 103.659 223.856 103.273 222.114 102.5C220.371 101.712 218.992 100.553 217.977 99.0227C216.977 97.4773 216.477 95.553 216.477 93.25C216.477 91.3106 216.833 89.6818 217.545 88.3636C218.258 87.0455 219.227 85.9848 220.455 85.1818C221.682 84.3788 223.076 83.7727 224.636 83.3636C226.212 82.9545 227.864 82.6667 229.591 82.5C231.621 82.2879 233.258 82.0909 234.5 81.9091C235.742 81.7121 236.644 81.4242 237.205 81.0455C237.765 80.6667 238.045 80.1061 238.045 79.3636V79.2273C238.045 77.7879 237.591 76.6742 236.682 75.8864C235.788 75.0985 234.515 74.7045 232.864 74.7045C231.121 74.7045 229.735 75.0909 228.705 75.8636C227.674 76.6212 226.992 77.5758 226.659 78.7273L217.705 78C218.159 75.8788 219.053 74.0455 220.386 72.5C221.72 70.9394 223.439 69.7424 225.545 68.9091C227.667 68.0606 230.121 67.6364 232.909 67.6364C234.848 67.6364 236.705 67.8636 238.477 68.3182C240.265 68.7727 241.848 69.4773 243.227 70.4318C244.621 71.3864 245.72 72.6136 246.523 74.1136C247.326 75.5985 247.727 77.3788 247.727 79.4545V103H238.545V98.1591H238.273C237.712 99.25 236.962 100.212 236.023 101.045C235.083 101.864 233.955 102.508 232.636 102.977C231.318 103.432 229.795 103.659 228.068 103.659ZM230.841 96.9773C232.265 96.9773 233.523 96.697 234.614 96.1364C235.705 95.5606 236.561 94.7879 237.182 93.8182C237.803 92.8485 238.114 91.75 238.114 90.5227V86.8182C237.811 87.0152 237.394 87.197 236.864 87.3636C236.348 87.5152 235.765 87.6591 235.114 87.7955C234.462 87.9167 233.811 88.0303 233.159 88.1364C232.508 88.2273 231.917 88.3106 231.386 88.3864C230.25 88.553 229.258 88.8182 228.409 89.1818C227.561 89.5455 226.902 90.0379 226.432 90.6591C225.962 91.2652 225.727 92.0227 225.727 92.9318C225.727 94.25 226.205 95.2576 227.159 95.9545C228.129 96.6364 229.356 96.9773 230.841 96.9773ZM262.125 103L252.625 68.0909H262.42L267.83 91.5455H268.148L273.784 68.0909H283.398L289.125 91.4091H289.42L294.739 68.0909H304.511L295.034 103H284.784L278.784 81.0455H278.352L272.352 103H262.125ZM309.676 103V68.0909H319.358V103H309.676ZM314.54 63.5909C313.1 63.5909 311.866 63.1136 310.835 62.1591C309.82 61.1894 309.312 60.0303 309.312 58.6818C309.312 57.3485 309.82 56.2045 310.835 55.25C311.866 54.2803 313.1 53.7955 314.54 53.7955C315.979 53.7955 317.206 54.2803 318.222 55.25C319.252 56.2045 319.767 57.3485 319.767 58.6818C319.767 60.0303 319.252 61.1894 318.222 62.1591C317.206 63.1136 315.979 63.5909 314.54 63.5909ZM332.773 103.591C331.273 103.591 329.985 103.061 328.909 102C327.848 100.924 327.318 99.6364 327.318 98.1364C327.318 96.6515 327.848 95.3788 328.909 94.3182C329.985 93.2576 331.273 92.7273 332.773 92.7273C334.227 92.7273 335.5 93.2576 336.591 94.3182C337.682 95.3788 338.227 96.6515 338.227 98.1364C338.227 99.1364 337.97 100.053 337.455 100.886C336.955 101.705 336.295 102.364 335.477 102.864C334.659 103.348 333.758 103.591 332.773 103.591ZM359.04 103.568C356.388 103.568 353.987 102.886 351.835 101.523C349.699 100.144 348.002 98.1212 346.744 95.4545C345.502 92.7727 344.881 89.4848 344.881 85.5909C344.881 81.5909 345.525 78.2652 346.812 75.6136C348.1 72.947 349.813 70.9545 351.949 69.6364C354.1 68.303 356.456 67.6364 359.017 67.6364C360.972 67.6364 362.6 67.9697 363.903 68.6364C365.222 69.2879 366.282 70.1061 367.085 71.0909C367.903 72.0606 368.525 73.0152 368.949 73.9545H369.244V56.4545H378.903V103H369.358V97.4091H368.949C368.494 98.3788 367.85 99.3409 367.017 100.295C366.199 101.235 365.131 102.015 363.812 102.636C362.509 103.258 360.919 103.568 359.04 103.568ZM362.108 95.8636C363.669 95.8636 364.987 95.4394 366.062 94.5909C367.153 93.7273 367.987 92.5227 368.562 90.9773C369.153 89.4318 369.449 87.6212 369.449 85.5455C369.449 83.4697 369.161 81.6667 368.585 80.1364C368.009 78.6061 367.176 77.4242 366.085 76.5909C364.994 75.7576 363.669 75.3409 362.108 75.3409C360.517 75.3409 359.176 75.7727 358.085 76.6364C356.994 77.5 356.169 78.697 355.608 80.2273C355.047 81.7576 354.767 83.5303 354.767 85.5455C354.767 87.5758 355.047 89.3712 355.608 90.9318C356.184 92.4773 357.009 93.6894 358.085 94.5682C359.176 95.4318 360.517 95.8636 362.108 95.8636ZM402.773 103.682C399.182 103.682 396.091 102.955 393.5 101.5C390.924 100.03 388.939 97.9545 387.545 95.2727C386.152 92.5758 385.455 89.3864 385.455 85.7045C385.455 82.1136 386.152 78.9621 387.545 76.25C388.939 73.5379 390.902 71.4242 393.432 69.9091C395.977 68.3939 398.962 67.6364 402.386 67.6364C404.689 67.6364 406.833 68.0076 408.818 68.75C410.818 69.4773 412.561 70.5758 414.045 72.0455C415.545 73.5152 416.712 75.3636 417.545 77.5909C418.379 79.803 418.795 82.3939 418.795 85.3636V88.0227H389.318V82.0227H409.682C409.682 80.6288 409.379 79.3939 408.773 78.3182C408.167 77.2424 407.326 76.4015 406.25 75.7955C405.189 75.1742 403.955 74.8636 402.545 74.8636C401.076 74.8636 399.773 75.2045 398.636 75.8864C397.515 76.553 396.636 77.4545 396 78.5909C395.364 79.7121 395.038 80.9621 395.023 82.3409V88.0455C395.023 89.7727 395.341 91.2652 395.977 92.5227C396.629 93.7803 397.545 94.75 398.727 95.4318C399.909 96.1136 401.311 96.4545 402.932 96.4545C404.008 96.4545 404.992 96.303 405.886 96C406.78 95.697 407.545 95.2424 408.182 94.6364C408.818 94.0303 409.303 93.2879 409.636 92.4091L418.591 93C418.136 95.1515 417.205 97.0303 415.795 98.6364C414.402 100.227 412.598 101.47 410.386 102.364C408.189 103.242 405.652 103.682 402.773 103.682ZM456.722 68.0909L444.517 103H433.608L421.403 68.0909H431.631L438.881 93.0682H439.244L446.472 68.0909H456.722Z" fill="#6C4CF1"/>
</svg>
